<?xml version="1.0" encoding="iso-8859-1"?>
<!-- Uploaded to: SVG Repo, www.svgrepo.com, Generator: SVG Repo Mixer Tools -->
<svg version="1.1" id="Layer_1" xmlns="http://www.w3.org/2000/svg" xmlns:xlink="http://www.w3.org/1999/xlink" 
	 viewBox="0 0 275.723 275.723" xml:space="preserve">
<g>
	<g>
		<g>
			<path style="fill:#4EFFBB;" d="M243.816,33.387h-2.958V21.062c0-3.944-3.204-7.148-7.148-7.148s-7.148,3.205-7.148,7.148v12.325
				h-4.41c-3.944,0-7.148,3.204-7.148,7.148v38.974c0,3.944,3.204,7.149,7.148,7.149h3.944v156.664
				c0,9.97-8.107,18.104-18.104,18.104c-9.915,0-17.967-8.025-18.077-17.912V97.641c0-17.885-14.544-32.428-32.428-32.428
				c-17.447,0-31.716,13.886-32.346,31.196h-0.055v0.849c0,0.11,0,0.247,0,0.383v145.681c0,9.97-8.107,18.104-18.077,18.104
				c-9.805,0-17.748-7.833-18.049-17.529v-35.496h0.74c5.176,0,9.394-4.218,9.394-9.394v-12.599
				c5.642-1.698,9.805-6.902,9.805-13.092V94.08c0-0.411-0.082-0.794-0.164-1.205c9.997-7.915,16.433-20.131,16.433-33.853
				c0-23.856-19.391-43.247-43.247-43.247S38.673,35.167,38.673,59.023c0,13.694,6.436,25.91,16.406,33.825
				c-0.055,0.411-0.11,0.822-0.11,1.232v79.236c0,6.19,4.136,11.394,9.778,13.092v12.599c0,5.176,4.218,9.394,9.422,9.394h0.466
				v34.921H74.58c0,0.383,0.027,0.767,0.055,1.123v0.794h0.027c1.013,16.981,15.091,30.484,32.346,30.484
				c17.858,0,32.401-14.543,32.401-32.401V97.449c0.11-9.887,8.162-17.912,18.077-17.912c9.997,0,18.104,8.107,18.104,18.104
				v145.681c0,0.137,0,0.246,0,0.383v0.493h0.027c0.493,17.474,14.817,31.525,32.374,31.525c17.885,0,32.428-14.543,32.428-32.401
				V86.658h3.396c3.944,0,7.148-3.204,7.148-7.148V40.535C250.965,36.591,247.76,33.387,243.816,33.387z"/>
		</g>
		<g>
			<g id="XMLID_6_">
				<g>
					<g>
						<rect x="65.158" y="174.823" style="fill:#302C58;" width="5.724" height="5.341"/>
					</g>
					<g>
						<path style="fill:#222051;" d="M176.001,177.929v-41.891c0-3.955-3.207-7.162-7.162-7.162l0,0
							c-3.955,0-7.162,3.207-7.162,7.162v41.889c0,3.955,3.207,7.162,7.162,7.162l0,0
							C172.794,185.091,176.001,181.884,176.001,177.929z"/>
						<path style="fill:#222051;" d="M229.903,19.473h-2.958V7.425c0-3.456-2.334-6.631-5.727-7.288
							c-4.566-0.882-8.57,2.602-8.57,7.012v12.325h-4.41c-3.949,0-7.148,3.199-7.148,7.148v38.974c0,3.947,3.199,7.148,7.148,7.148
							h3.944v156.665c0,9.97-8.107,18.104-18.104,18.104c-9.915,0-17.967-8.025-18.077-17.912v-28.12
							c0-3.955-3.207-7.162-7.162-7.162l0,0c-3.955,0-7.162,3.207-7.162,7.162v28.805h0.027
							c0.493,17.474,14.817,31.525,32.374,31.525c17.885,0,32.428-14.543,32.428-32.401V72.744h3.396
							c3.947,0,7.148-3.202,7.148-7.149V26.621C237.051,22.675,233.849,19.473,229.903,19.473z M222.727,58.42h-7.313V33.77h7.313
							V58.42z"/>
						<path style="fill:#222051;" d="M161.677,84.354v28.131c0,3.955,3.207,7.162,7.162,7.162l0,0c3.955,0,7.162-3.207,7.162-7.162
							v-27.84c0-16.699-12.248-31.36-28.851-33.152c-19.033-2.054-35.252,12.522-35.926,31.001h-0.055v146.194
							c0,9.838-7.537,18.433-17.367,18.811c-10.128,0.389-18.449-7.587-18.759-17.515v-35.496h0.74c5.168,0,9.394-4.226,9.394-9.394
							v-12.599c5.642-1.698,9.805-6.902,9.805-13.092V80.167c0-0.411-0.082-0.794-0.164-1.205
							c11.161-8.838,17.885-23.037,16.168-38.706C108.811,20.41,92.794,4.349,72.953,2.139C46.89-0.765,24.76,19.624,24.76,45.109
							c0,13.694,6.436,25.91,16.406,33.825c-0.055,0.411-0.11,0.822-0.11,1.233v79.236c0,6.19,4.136,11.394,9.778,13.092v12.599
							c0,5.187,4.207,9.394,9.394,9.394h0.493v34.921h-0.055c0,0.383,0.027,0.767,0.055,1.123v0.794h0.027
							c1.038,17.403,15.795,31.149,33.634,30.459c17.559-0.679,31.114-15.823,31.114-33.393V83.536
							c0.118-10.682,9.509-19.191,20.503-17.753C155.104,66.973,161.677,75.171,161.677,84.354z M68.007,16.186
							c14.16,0,25.937,10.189,28.43,23.609c-23.856,5.971-46.698,2.219-56.832-0.082C42.124,26.32,53.902,16.186,68.007,16.186z
							 M40.728,54.613c7.012,1.369,16.899,2.766,28.348,2.766c8.107,0,17.008-0.712,26.184-2.602
							c-4,11.202-14.682,19.255-27.253,19.255C55.381,74.032,44.672,65.897,40.728,54.613z M55.353,158.855v-71.54h3.396
							c2.985,0.657,6.08,1.013,9.257,1.013s6.272-0.356,9.257-1.013h3.396v71.54H55.353z M70.883,180.164h-5.724v-5.341h5.724
							V180.164z"/>
					</g>
					<g>
						<path style="fill:#302C58;" d="M72.992,123.058V98.736c0-2.355-1.89-4.245-4.245-4.245h-0.466
							c-2.355,0-4.273,1.89-4.273,4.245v24.321c0,2.355,1.917,4.273,4.273,4.273h0.466C71.102,127.33,72.992,125.413,72.992,123.058
							z M80.661,87.315v71.54H55.353v-71.54h3.396c2.985,0.657,6.08,1.013,9.257,1.013c3.177,0,6.272-0.356,9.257-1.013H80.661z"/>
					</g>
				</g>
			</g>
		</g>
	</g>
</g>
</svg>